HIERARCHY
ROOT Hips
{
	OFFSET 0 0 0
	CHANNELS 6 Xposition Yposition Zposition Zrotation Yrotation Xrotation 
	JOINT Chest
	{
		OFFSET 0 10.3669 -0.000175
		CHANNELS 3 Zrotation Yrotation Xrotation 
		JOINT Chest2
		{
			OFFSET 0 11.4338 0.000318
			CHANNELS 3 Zrotation Yrotation Xrotation 
			JOINT Chest3
			{
				OFFSET 0 10.3311 0
				CHANNELS 3 Zrotation Yrotation Xrotation 
				JOINT Chest4
				{
					OFFSET 0 10.3311 0
					CHANNELS 3 Zrotation Yrotation Xrotation 
					JOINT Neck
					{
						OFFSET 0 14.5301 0
						CHANNELS 3 Zrotation Yrotation Xrotation 
						JOINT Head
						{
							OFFSET 0 9.61625 0.000757
							CHANNELS 3 Zrotation Yrotation Xrotation 
							End Site
							{
								OFFSET 0 18.3982 0.000395
							}
						}
					}
					JOINT RightCollar
					{
						OFFSET -3.15947 8.10757 0
						CHANNELS 3 Zrotation Yrotation Xrotation 
						JOINT RightShoulder
						{
							OFFSET -14.7594 0 0
							CHANNELS 3 Zrotation Yrotation Xrotation 
							JOINT RightElbow
							{
								OFFSET 0 -31.5618 0
								CHANNELS 3 Zrotation Yrotation Xrotation 
								JOINT RightWrist
								{
									OFFSET 0 -25.8116 -0
									CHANNELS 3 Zrotation Yrotation Xrotation 
									End Site
									{
										OFFSET 0 -19.2963 0
									}
								}
							}
						}
					}
					JOINT LeftCollar
					{
						OFFSET 3.15947 8.10757 0
						CHANNELS 3 Zrotation Yrotation Xrotation 
						JOINT LeftShoulder
						{
							OFFSET 14.7594 0 0
							CHANNELS 3 Zrotation Yrotation Xrotation 
							JOINT LeftElbow
							{
								OFFSET 0 -31.5618 0
								CHANNELS 3 Zrotation Yrotation Xrotation 
								JOINT LeftWrist
								{
									OFFSET 0 -25.8116 -0
									CHANNELS 3 Zrotation Yrotation Xrotation 
									End Site
									{
										OFFSET 0 -19.2963 0
									}
								}
							}
						}
					}
				}
			}
		}
	}
	JOINT RightHip
	{
		OFFSET -8.42048 0.000859 8.8e-005
		CHANNELS 3 Zrotation Yrotation Xrotation 
		JOINT RightKnee
		{
			OFFSET 0 -43.6119 -8.3e-005
			CHANNELS 3 Zrotation Yrotation Xrotation 
			JOINT RightAnkle
			{
				OFFSET 0 -42.6305 -0.00014
				CHANNELS 3 Zrotation Yrotation Xrotation 
				JOINT RightToe
				{
					OFFSET 0 -7.53943 17.1199
					CHANNELS 3 Zrotation Yrotation Xrotation 
					End Site
					{
						OFFSET 0 -1.59521 6.94063
					}
				}
			}
		}
	}
	JOINT LeftHip
	{
		OFFSET 8.42048 0.000859 8.8e-005
		CHANNELS 3 Zrotation Yrotation Xrotation 
		JOINT LeftKnee
		{
			OFFSET 0 -43.6119 -8.3e-005
			CHANNELS 3 Zrotation Yrotation Xrotation 
			JOINT LeftAnkle
			{
				OFFSET 0 -42.6305 -0.00014
				CHANNELS 3 Zrotation Yrotation Xrotation 
				JOINT LeftToe
				{
					OFFSET 0 -7.53943 17.1199
					CHANNELS 3 Zrotation Yrotation Xrotation 
					End Site
					{
						OFFSET 0 -1.59521 6.94063
					}
				}
			}
		}
	}
}
MOTION
Frames:	7
Frame Time:	0.008333
95.6269  90.7546  220.923  -138.158  -86.0709  119.58  4.13971  1.42525  7.04469  1.81793  0.696236  3.11791  1.81793  0.696236  3.11791  1.35992  0.531473  2.33636  -2.33214  0.96537  24.3678  -4.51193  1.19552  9.06647  11.0502  2.36575  2.81058  -23.263  -11.2512  -28.6382  4.76904  20.3144  -26.9557  -26.4649  9.0448  -24.2804  -1.6892  6.21034  1.90637  8.30295  9.24003  -5.39469  -4.97726  2.73937  -6.93974  14.2328  -26.3235  -31.6156  0.142225  -12.3706  -6.9934  -0.0736075  3.19239  24.5392  1.78763  -0.129502  0.432932  0.532115  0.0367265  -1.96132  7.86699  -2.05028  8.077  1.07285  3.78175  66.8341  -4.44129  -6.13784  7.60456  1.85235  1.24186  -45.5983  
94.8152  90.9754  220.551  -134.893  -86.1132  116.436  4.28134  1.66124  7.12092  1.87695  0.803959  3.14908  1.87695  0.803959  3.14908  1.40359  0.612667  2.35933  -2.29769  0.80997  24.3447  -4.4107  0.91851  9.02837  11.1214  2.56522  2.89827  -23.4712  -10.7117  -29.7152  4.46075  20.0789  -26.9647  -26.8671  8.80116  -24.5008  -1.73751  6.22079  1.87339  8.24549  9.03049  -5.38273  -4.29291  3.20814  -5.97637  14.01  -26.6215  -31.4346  0.235795  -12.4894  -6.39401  -0.0297714  2.84335  24.3749  1.56441  0.00254644  -0.0264643  0.452677  0.0292955  -1.63532  7.59045  -2.02787  6.58051  1.15153  3.22872  68.3732  -4.11989  -4.79123  6.73714  0.895966  0.6581  -41.1509  
94.0168  91.2166  220.191  -132.237  -86.2025  113.894  4.38831  1.91234  7.20369  1.92021  0.917966  3.18298  1.92021  0.917966  3.18298  1.43539  0.698505  2.38432  -2.25172  0.657123  24.3314  -4.28886  0.649342  9.00811  11.1676  2.75776  2.98993  -23.6538  -10.2267  -30.8112  4.16665  19.8721  -26.8729  -27.271  8.51376  -24.7287  -1.81728  6.2411  1.82855  8.22874  8.89411  -5.35789  -3.60412  3.56376  -5.01771  13.7451  -26.8422  -31.2096  0.271112  -12.5285  -5.77359  -0.0144677  2.4699  24.1361  1.38824  0.0947089  -0.404298  0.372385  0.0243938  -1.39838  7.25392  -2.26976  5.06142  0.728867  2.90563  69.5637  -3.52268  -3.34757  5.92749  0.0865425  0.146198  -36.4763  
93.2347  91.4686  219.84  -130.494  -86.3189  112.257  4.45601  2.17445  7.29887  1.94569  1.0364  3.22233  1.94569  1.0364  3.22233  1.45381  0.787596  2.41341  -2.19768  0.507539  24.3315  -4.15292  0.388556  9.012  11.1964  2.95654  3.07298  -23.8026  -9.78384  -31.9143  3.84529  19.6915  -26.6726  -27.623  8.24786  -24.9517  -1.89223  6.29173  1.76507  8.21595  8.83788  -5.31471  -2.88196  3.80877  -4.06127  13.4462  -27.039  -30.9681  0.274885  -12.5086  -5.15315  -0.0226829  2.12429  23.8612  1.24222  0.155473  -0.759376  0.297777  0.0205016  -1.19785  6.88931  -2.789  3.53225  0.161164  2.91688  70.6149  -2.71352  -2.20174  5.08951  -0.57561  -0.288126  -31.6607  
92.465  91.7274  219.496  -129.259  -86.4569  111.129  4.49316  2.44664  7.41142  1.95721  1.15903  3.26936  1.95721  1.15903  3.26936  1.4617  0.879782  2.44826  -2.13628  0.367954  24.3338  -4.00598  0.147964  9.01926  11.1977  3.17312  3.11894  -23.8883  -9.37107  -33.0093  3.50849  19.4986  -26.386  -27.8548  7.89549  -25.1902  -1.96714  6.36279  1.67109  8.21133  8.87668  -5.25642  -2.15216  3.92756  -3.13942  13.1521  -27.2435  -30.6955  0.256026  -12.4571  -4.5168  -0.0371514  1.83428  23.5422  1.13353  0.174442  -1.05876  0.226269  0.0181686  -1.06631  6.55518  -3.44296  2.01528  -0.462923  3.16921  71.3394  -1.92967  -1.35147  4.3159  -1.01156  -0.573696  -26.9021  
91.7115  91.9843  219.169  -128.863  -86.6124  110.833  4.50238  2.72929  7.5293  1.95597  1.28592  3.31875  1.95597  1.28592  3.31875  1.45998  0.975105  2.48487  -2.07251  0.227422  24.3441  -3.85448  -0.0935606  9.04121  11.1567  3.37517  3.15883  -23.8996  -8.97267  -34.0876  3.15133  19.3061  -26.0143  -28.0472  7.69323  -25.4083  -2.01895  6.43134  1.58089  8.18813  9.01708  -5.1807  -1.39482  3.96356  -2.23933  12.8639  -27.4916  -30.4285  0.195007  -12.3781  -3.90153  -0.0551459  1.57181  23.1894  1.06165  0.197693  -1.3177  0.154579  0.0160843  -0.944809  6.24961  -4.11985  0.555787  -1.10721  3.5483  71.7552  -1.37354  -0.762812  3.51387  -1.13929  -0.658091  -22.4489  
90.9409  92.2388  218.85  -128.261  -86.7856  110.382  4.49083  3.00297  7.64672  1.9455  1.40848  3.36813  1.9455  1.40848  3.36813  1.45134  1.06713  2.52151  -2.01094  0.0986357  24.3442  -3.70996  -0.314414  9.04367  11.0769  3.59626  3.14089  -23.8181  -8.59115  -35.1358  2.79464  19.0821  -25.5815  -28.1754  7.4718  -25.6345  -2.10448  6.53357  1.48886  8.19778  9.24225  -5.08765  -0.643337  3.92884  -1.43675  12.6035  -27.7671  -30.1405  0.114486  -12.3263  -3.26448  -0.0723985  1.28553  22.8708  1.00513  0.256268  -1.63521  0.0892104  0.0151102  -0.883176  5.95641  -4.79549  -0.868375  -1.74962  3.95163  71.822  -1.09729  -0.378024  2.70027  -0.941488  -0.546979  -18.4999  
